<svg xmlns="http://www.w3.org/2000/svg" viewBox="0 0 1600 1000" role="img" aria-labelledby="title desc">
  <title id="title">Library Altar</title>
  <desc id="desc">Illustrated archive shelves and altar for PMTL content seed media.</desc>
  <rect width="1600" height="1000" fill="#efe4d4" />
  <rect x="120" y="170" width="1360" height="620" rx="28" fill="#d6c0a4" />
  <rect x="180" y="230" width="1240" height="500" rx="20" fill="#684d33" />
  <g fill="#f2e7d5">
    <rect x="240" y="290" width="120" height="360" rx="10" />
    <rect x="392" y="290" width="80" height="360" rx="10" />
    <rect x="506" y="290" width="104" height="360" rx="10" />
    <rect x="706" y="290" width="188" height="360" rx="10" />
    <rect x="930" y="290" width="102" height="360" rx="10" />
    <rect x="1064" y="290" width="96" height="360" rx="10" />
    <rect x="1194" y="290" width="146" height="360" rx="10" />
  </g>
  <g transform="translate(800 320)">
    <rect x="-110" y="0" width="220" height="70" rx="12" fill="#f6ecd9" />
    <rect x="-160" y="82" width="320" height="26" rx="13" fill="#b88a51" />
    <circle cx="0" cy="-32" r="36" fill="#b88a51" />
  </g>
  <text x="800" y="885" fill="#5d4329" font-size="52" font-family="Georgia, serif" text-anchor="middle" letter-spacing="10">THU VIEN TU HOC PMTL</text>
</svg>
