<svg xmlns="http://www.w3.org/2000/svg" viewBox="0 0 1600 1000" role="img" aria-labelledby="title desc">
  <title id="title">Lotus Dawn</title>
  <desc id="desc">Abstract sunrise above lotus petals for PMTL seed media.</desc>
  <defs>
    <linearGradient id="sky" x1="0" y1="0" x2="0" y2="1">
      <stop offset="0%" stop-color="#f6efe4" />
      <stop offset="45%" stop-color="#dcc5a1" />
      <stop offset="100%" stop-color="#8f6b45" />
    </linearGradient>
    <radialGradient id="sun" cx="50%" cy="38%" r="28%">
      <stop offset="0%" stop-color="#fff7d6" />
      <stop offset="100%" stop-color="#d4a34b" stop-opacity="0" />
    </radialGradient>
  </defs>
  <rect width="1600" height="1000" fill="url(#sky)" />
  <circle cx="800" cy="380" r="240" fill="url(#sun)" />
  <path d="M0 760 C180 680 320 650 480 690 C620 725 760 840 1600 700 L1600 1000 L0 1000 Z" fill="#49382b" opacity="0.32" />
  <g fill="#f8dfb8" opacity="0.9">
    <path d="M800 530 C745 640 705 726 692 836 C760 792 807 723 800 530 Z" />
    <path d="M800 530 C855 640 895 726 908 836 C840 792 793 723 800 530 Z" />
    <path d="M800 560 C700 660 620 736 566 850 C674 822 760 748 800 560 Z" />
    <path d="M800 560 C900 660 980 736 1034 850 C926 822 840 748 800 560 Z" />
    <path d="M800 610 C658 700 540 762 430 868 C580 872 708 796 800 610 Z" />
    <path d="M800 610 C942 700 1060 762 1170 868 C1020 872 892 796 800 610 Z" />
  </g>
</svg>
